# xmcd
#
# Track frame offsets: 
#        150
#        15100
#        35407
#        56277
#        80685
#        99677
#        115690
#        128107
#        146220
#        165495
#        182805
#        207132
#        236225
#        248270
#        271222
#        289427
#        306337
#        328077
#
# Disc length: 4606 seconds
#
# Revision: 4
# Processed by: cddbd v1.5.2PL0 Copyright (c) Steve Scherf et al.
# Submitted via: ExactAudioCopy v0.95b4
#
DISCID=fa11fc12
DTITLE=Cocker, Joe  - The Anthology CD2
DYEAR=1999
DGENRE=Rock
TTITLE0=Pardon Me Sir
TTITLE1=High Time We Went
TTITLE2=Black-Eyed Blues
TTITLE3=Something To Say
TTITLE4=Put Out The Light
TTITLE5=I Can Stand A Little Rain
TTITLE6=You Are So Beautiful
TTITLE7=I Think It's Gonna Rain Today
TTITLE8=Jamaica Say You Will
TTITLE9=The Jealous Kind
TTITLE10=Catfish
TTITLE11=A Song For You
TTITLE12=Fun Time
TTITLE13=I'm So Glad I'm Standing Here Today
TTITLE14=Sweet Little Woman
TTITLE15=Many Rivers To Cross
TTITLE16=Talking Back To The Night
TTITLE17=Up Where We Belong
EXTD=
EXTT0=
EXTT1=
EXTT2=
EXTT3=
EXTT4=
EXTT5=
EXTT6=
EXTT7=
EXTT8=
EXTT9=
EXTT10=
EXTT11=
EXTT12=
EXTT13=
EXTT14=
EXTT15=
EXTT16=
EXTT17=
PLAYORDER=
